<svg xmlns="http://www.w3.org/2000/svg" viewBox="2 2 20 20">
	<g fill="none">
		<path d="m12.593 23.258l-.011.002l-.071.035l-.02.004l-.014-.004l-.071-.035q-.016-.005-.024.005l-.004.01l-.017.428l.005.02l.01.013l.104.074l.015.004l.012-.004l.104-.074l.012-.016l.004-.017l-.017-.427q-.004-.016-.017-.018m.265-.113l-.013.002l-.185.093l-.01.01l-.003.011l.018.43l.005.012l.008.007l.201.093q.019.005.029-.008l.004-.014l-.034-.614q-.005-.018-.02-.022m-.715.002a.02.02 0 0 0-.027.006l-.006.014l-.034.614q.001.018.017.024l.015-.002l.201-.093l.01-.008l.004-.011l.017-.43l-.003-.012l-.01-.01z" />
		<path fill="black" d="M2.802 8.069L6.746 14.9a6 6 0 0 0 6.481 2.974l-2.346 4.064C5.885 21.382 2 17.145 2 12c0-1.396.286-2.724.802-3.931M21.168 8A10 10 0 0 1 22 12c0 5.118-3.845 9.338-8.804 9.93l3.948-6.84c.544-.902.856-1.96.856-3.09a5.98 5.98 0 0 0-1.528-4zM12 8a4 4 0 1 1 0 8a4 4 0 0 1 0-8m0-6a9.99 9.99 0 0 1 8 4h-8a6 6 0 0 0-5.701 4.125L3.953 6.062A9.99 9.99 0 0 1 12 2" />
	</g>
</svg>
