<svg xmlns="http://www.w3.org/2000/svg" viewBox="0 0 24 24">
	<path fill="black" d="M3 20q-.825 0-1.412-.587T1 18V4q0-.825.588-1.412T3 2h6q.825 0 1.413.588T11 4v5H8q-1.25 0-2.125.875T5 12t.875 2.125T8 15h3v3q0 .825-.587 1.413T9 20zM6.538 6.288q.212-.213.212-.538t-.213-.537T6 5t-.537.213t-.213.537t.213.538T6 6.5t.538-.213m.75 6.426Q7 12.425 7 12t.288-.712T8 11t.713.288T9 12t-.288.713T8 13t-.712-.288m4 0Q11 12.426 11 12t.288-.712T12 11t.713.288T13 12t-.288.713T12 13t-.712-.288M15 22q-.825 0-1.412-.587T13 20v-5h3q1.25 0 2.125-.875T19 12t-.875-2.125T16 9h-3V6q0-.825.588-1.412T15 4h6q.825 0 1.413.588T23 6v14q0 .825-.587 1.413T21 22zm.288-9.287Q15 12.425 15 12t.288-.712T16 11t.713.288T17 12t-.288.713T16 13t-.712-.288m3.25-4.424q.212-.213.212-.538t-.213-.537T18 7t-.537.213t-.213.537t.213.538T18 8.5t.538-.213" />
</svg>
