<svg xmlns="http://www.w3.org/2000/svg" viewBox="0 0 24 24">
	<path fill="black" d="M19.5 3.5h-2.38l.94-.94a1.49 1.49 0 0 0 0-2.12a1.51 1.51 0 0 0-2.12 0L12.88 3.5h-1.76L8.06.44a1.51 1.51 0 0 0-2.12 0a1.49 1.49 0 0 0 0 2.12l.94.94H4.5A4.51 4.51 0 0 0 0 8v10a4.51 4.51 0 0 0 4.5 4.5H5a1.75 1.75 0 0 0 3.46 0h7a1.75 1.75 0 0 0 3.46 0h.52A4.51 4.51 0 0 0 24 18V8a4.51 4.51 0 0 0-4.5-4.5M21 18a1.5 1.5 0 0 1-1.5 1.5h-15A1.5 1.5 0 0 1 3 18V8a1.5 1.5 0 0 1 1.5-1.5h15A1.5 1.5 0 0 1 21 8Z" />
	<path fill="black" d="M15 15.1a.73.73 0 0 0-.87.57a.54.54 0 0 1-.34.08c-.65 0-1-1-1-1a.76.76 0 0 0-.71-.49a.76.76 0 0 0-.7.49s-.4 1-1.05 1c-.23 0-.32-.06-.32 0a.75.75 0 0 0-1.55.25a1.69 1.69 0 0 0 1.79 1.24a2.35 2.35 0 0 0 1.75-.82a2.35 2.35 0 0 0 1.75.83A1.69 1.69 0 0 0 15.54 16a.77.77 0 0 0-.54-.9m-5.24-4.45a.74.74 0 0 0-.88-.58l-3.94.8a.75.75 0 0 0-.59.89a.77.77 0 0 0 .74.6h.15l3.94-.8a.76.76 0 0 0 .58-.91m9.3.22l-3.94-.8a.74.74 0 0 0-.88.58a.76.76 0 0 0 .58.89l3.94.8h.15a.77.77 0 0 0 .74-.6a.75.75 0 0 0-.59-.87" />
</svg>
